<?xml version="1.0" encoding="UTF-8"?>
<!DOCTYPE svg PUBLIC "-//W3C//DTD SVG 1.1//EN" "http://www.w3.org/Graphics/SVG/1.1/DTD/svg11.dtd">
<!-- Creator: CorelDRAW 2019 (64 Bit) -->
<svg xmlns="http://www.w3.org/2000/svg" xml:space="preserve" width="110.678mm" height="70.8759mm" version="1.1" style="shape-rendering:geometricPrecision; text-rendering:geometricPrecision; image-rendering:optimizeQuality; fill-rule:evenodd; clip-rule:evenodd"
viewBox="0 0 11054.32 7078.97"
 xmlns:xlink="http://www.w3.org/1999/xlink">
 <defs>
  <style type="text/css">
   <![CDATA[
    .fil6 {fill:#FEFEFE}
    .fil2 {fill:#F6CE2C}
    .fil0 {fill:#E04164}
    .fil3 {fill:#E47B38}
    .fil4 {fill:#D4DE37}
    .fil1 {fill:#ADD144}
    .fil5 {fill:#344C83}
    .fil7 {fill:#344C83;fill-rule:nonzero}
   ]]>
  </style>
 </defs>
 <g id="Camada_x0020_1">
  <metadata id="CorelCorpID_0Corel-Layer"/>
  <g id="_2232331036784">
   <g>
    <path class="fil0" d="M5889.53 4079.95l-1144.52 0c-632.31,0 -1144.72,-512.48 -1144.72,-1144.57 0,-632.03 512.41,-1144.58 1144.72,-1144.58 631.97,0 1144.52,512.55 1144.52,1144.58l0 1144.57z"/>
    <path class="fil1" d="M4538.04 3129.11l1564.69 0c863.96,0 1564.61,-700.38 1564.61,-1564.51 0,-864.02 -700.65,-1564.61 -1564.61,-1564.61 -864.14,0 -1564.69,700.59 -1564.69,1564.61l0 1564.51z"/>
    <path class="fil2" d="M6870.29 3707.49l-1741.73 0c-961.85,0 -1741.58,-779.81 -1741.58,-1741.72 0,-961.95 779.73,-1741.76 1741.58,-1741.76 961.98,0 1741.73,779.81 1741.73,1741.76l0 1741.72z"/>
    <path class="fil3" d="M5889.53 3707.49l-761.04 0c-654.08,0 -1223.95,-360.91 -1521.63,-894.19 60.81,-574.75 547.12,-1022.49 1138.15,-1022.49 631.97,0 1144.52,512.55 1144.52,1144.58l0 772.1z"/>
    <path class="fil4" d="M5284.19 230.95c889.04,78.76 1586.1,825.27 1586.1,1734.82l0 962.37c-226.69,127.93 -488.66,201.01 -767.61,201.01l-1564.65 0 0 -1564.54c0,-564.06 298.59,-1058.23 746.15,-1333.66z"/>
    <path class="fil3" d="M4490.25 1799.12c70.51,-12.81 143,-19.51 217.21,-19.51 663.74,0 1201.83,537.95 1201.83,1201.69l0 203.49 -1419.03 0 0 -1385.67z"/>
    <path class="fil5" d="M4140.9 3369.43l1353.68 0c747.55,0 1353.58,-606.09 1353.58,-1353.67 0,-747.57 -606.03,-1353.64 -1353.58,-1353.64 -747.65,0 -1353.68,606.07 -1353.68,1353.64l0 1353.67z"/>
    <path class="fil6" d="M5267.26 1416.25l0 1235.11 204.23 0c338.96,0 617.63,-278.67 617.63,-617.7 0,-338.75 -278.67,-617.41 -617.63,-617.41l-204.23 0zm-275.9 -249.35l506.68 0c476.79,0 866.92,390.15 866.92,866.76 0,476.9 -390.14,867.06 -866.92,867.06l-506.68 0 0 -1733.82z"/>
   </g>
   <path class="fil7" d="M10415.4 5002.47c227.71,0 413.13,190.95 413.13,425.95 0,233.23 -185.41,424.06 -411.34,424.06 -233.15,0 -416.71,-189.04 -416.71,-429.52 0,-229.55 187.26,-420.5 414.93,-420.5zm0 -211.15c-350.6,0 -640.88,286.27 -640.88,629.76 0,359.81 282.75,642.57 642.67,642.57 350.71,0 637.12,-284.55 637.12,-635.23 0,-352.47 -286.41,-637.1 -638.91,-637.1zm-963.34 1248.51l225.79 0 0 -1224.69 -225.79 0 0 1224.69zm-689.73 -638.91l0 -374.6 146.83 0c132.33,0 216.72,71.51 216.72,185.54 0,117.23 -82.68,189.06 -218.49,189.06l-145.05 0zm-225.96 638.91l225.96 0 0 -468.15 326.81 468.15 275.35 0 -332.33 -451.58c90.04,-22.2 133.97,-42.45 185.52,-86.42 82.58,-69.81 134.07,-189.15 134.07,-308.4 0,-106.54 -44.1,-205.71 -123.11,-279.1 -77.04,-69.8 -168.88,-99.18 -317.71,-99.18l-374.57 0 0 1224.69zm-720.78 -1309.17l376.28 -200.19 -84.5 -167 -372.62 220.41 80.83 146.77zm-45.98 782.18l130.34 -376.41 130.41 376.41 -260.75 0zm-468.13 526.99l249.61 0 135.91 -315.9 433.22 0 132.22 315.9 249.82 0 -514.11 -1224.69 -176.36 0 -510.31 1224.69zm-263.92 0l225.9 0 0 -1224.69 -225.9 0 0 1224.69zm-851.21 -211.09l0 -802.42 43.99 0c128.62,0 214.76,16.5 284.7,53.31 122.84,66.04 200.12,201.87 200.12,354.36 0,141.38 -68.04,266.1 -183.72,334.02 -73.37,44.09 -154.09,60.74 -297.55,60.74l-47.54 0zm-225.9 211.09l282.79 0c168.95,0 282.65,-20.16 381.84,-68.09 190.86,-91.68 315.83,-304.55 315.83,-541.52 0,-213.05 -102.84,-416.8 -258.92,-515.9 -106.34,-66.12 -255.09,-99.18 -444.2,-99.18l-277.32 0 0 1224.69zm-1192.86 -1037.36c227.73,0 413.22,190.95 413.22,425.95 0,233.23 -185.48,424.06 -411.34,424.06 -233.21,0 -416.81,-189.04 -416.81,-429.52 0,-229.55 187.34,-420.5 414.94,-420.5zm0 -211.15c-350.57,0 -640.79,286.27 -640.79,629.76 0,359.81 282.72,642.57 642.67,642.57 350.78,0 637.06,-284.55 637.06,-635.23 0,-352.47 -286.28,-637.1 -638.94,-637.1zm-1212.92 569.09l0 -334.09 82.68 0c91.68,0 104.56,1.8 141.33,14.69 65.94,22.04 106.36,79.02 106.36,146.76 0,68.08 -44.03,132.26 -104.58,154.3 -34.85,12.82 -84.5,18.34 -154.2,18.34l-71.58 0zm-225.96 679.42l225.96 0 0 -468.15 78.77 0c185.55,0 236.98,-9.22 306.69,-53.4 104.72,-66.04 170.83,-194.58 170.83,-332.14 0,-130.46 -55.01,-236.88 -156.08,-306.77 -77.1,-51.42 -139.58,-64.24 -317.53,-64.24l-308.63 0 0 1224.69zm-1012.93 -1224.69l0 778.42c0,123.1 20.23,211.26 66.2,279.18 77.11,117.55 222.11,190.91 374.5,190.91 135.91,0 260.8,-56.89 345.19,-157.94 62.47,-73.47 89.99,-170.7 89.99,-312.15l0 -778.42 -225.81 0 0 778.42c0,88.17 -9.3,130.37 -38.61,172.74 -34.85,53.23 -100.98,84.32 -174.45,84.32 -73.47,0 -135.83,-31.09 -172.55,-86.23 -31.19,-44.14 -38.54,-80.79 -38.54,-170.83l0 -778.42 -225.93 0zm-689.72 585.78l0 -374.6 147.03 0c132.08,0 216.56,71.51 216.56,185.54 0,117.23 -82.61,189.06 -218.43,189.06l-145.15 0zm-225.7 638.91l225.7 0 0 -468.15 326.93 468.15 275.26 0 -332.33 -451.58c89.96,-22.2 134.12,-42.45 185.46,-86.42 82.61,-69.81 134.04,-189.15 134.04,-308.4 0,-106.54 -44.08,-205.71 -123,-279.1 -77.08,-69.8 -168.83,-99.18 -317.63,-99.18l-374.43 0 0 1224.69zm-891.79 -411.32l512.22 0c-67.9,139.49 -205.63,223.98 -361.62,223.98 -108.41,0 -209.39,-34.86 -284.56,-99.1 -90.03,-77.15 -148.8,-202.03 -148.8,-321.37 0,-106.36 45.96,-223.99 119.3,-301.05 75.39,-80.72 185.56,-126.68 302.96,-126.68 132.17,0 255.17,64.15 326.77,170.75l269.86 0c-77.15,-218.52 -332.17,-383.72 -592.8,-383.72 -356.23,0 -651.91,288.3 -651.91,637.1 0,352.47 293.72,635.23 657.29,635.23 354.36,0 649.84,-282.76 649.84,-620.53l0 -25.8 -798.56 0 0 211.19z"/>
   <path class="fil7" d="M3120.19 6980.74l112.2 0c71.05,0 127.28,-20.68 168.58,-62.03 41.4,-41.41 62.03,-97.56 62.03,-168.57 0,-73.72 -21.85,-131.27 -65.71,-172.74 -43.91,-41.55 -104.56,-62.29 -181.96,-62.29l-95.15 0 0 465.64zm89.44 85.44l-179.31 0 0 -638.33 205.61 0c95.83,0 173.3,29.63 232.16,88.97 58.85,59.35 88.32,136.82 88.32,232.4 0,54.36 -11.03,103.92 -33.15,148.66 -22.04,44.74 -53.79,81.96 -95.25,111.75 -28.09,20.22 -58.04,34.7 -89.97,43.42 -31.8,8.81 -74.7,13.13 -128.4,13.13z"/>
   <path class="fil7" d="M3998.27 6790.45l-89.86 -242.42 -91.68 242.42 181.54 0zm-214.34 89.88l-71.94 185.85 -97.78 0 249.48 -638.33 89.87 0 249.47 638.33 -101.25 0 -70.18 -185.85 -247.66 0z"/>
   <path class="fil7" d="M4731.23 6759.3l47.34 0c64.02,0 111.7,-10.35 142.93,-31.08 31.26,-20.82 46.96,-52.33 46.96,-94.79 0,-41.13 -13.47,-71.41 -40.33,-90.67 -26.94,-19.35 -69.46,-28.98 -127.57,-28.98l-69.33 0 0 245.53zm0 306.94l-92.48 0 0 -638.42 184.17 0c76.57,0 135,17.7 175.34,53.07 40.33,35.34 60.46,86.5 60.46,153.45 0,52 -16.79,95.49 -50.59,130.45 -33.7,34.93 -77.2,53.71 -130.43,56.3l181.02 245.15 -115.72 0 -211.76 -296.4 0 296.4z"/>
   <polygon class="fil7" points="5549.32,7066.24 5217.79,7066.24 5217.79,6427.88 5549.32,6427.88 5549.32,6512.92 5310.39,6512.92 5310.39,6703.61 5549.32,6703.61 5549.32,6786.97 5310.39,6786.97 5310.39,6978.08 5549.32,6978.08 "/>
   <path class="fil7" d="M5961.15 6743.98l396.17 0c-4.43,99.65 -36.84,180.38 -97.23,242.2 -60.31,61.86 -136.89,92.8 -229.47,92.8 -48.08,0 -92.39,-9.23 -132.96,-27.66 -40.57,-18.38 -77,-45.73 -109.23,-81.96 -27.24,-30.14 -48,-64.43 -62.03,-102.85 -14.05,-38.46 -21.06,-79.59 -21.06,-123.43 0,-44.73 8.51,-87.08 25.47,-127.1 16.99,-40.08 41.86,-76.17 74.79,-108.32 31.09,-30.94 65.76,-54.12 104.24,-69.57 38.33,-15.26 80.94,-22.93 127.89,-22.93 64.71,0 121.54,15.1 170.34,45.37 48.84,30.23 85.73,73.25 110.64,129.08l-114.04 0c-21.07,-27.21 -46.37,-47.6 -75.68,-61.4 -29.36,-13.72 -62.09,-20.56 -98.2,-20.56 -30.28,0 -59.03,5.71 -86.38,17.05 -27.25,11.43 -51.49,27.94 -72.62,49.53 -22.05,22.54 -39.18,48.77 -51.54,78.54 -12.31,29.8 -18.49,60.26 -18.49,91.2 0,33.28 5.61,64.81 16.71,94.52 11.17,29.61 27.18,55.25 48,76.89 21.94,22.75 47.35,40.48 76.17,53.06 28.74,12.55 58.01,18.86 87.98,18.86 48.73,0 91.78,-12.89 129,-38.85 37.29,-25.79 67.89,-63.99 92,-114.6l-290.47 0 0 -89.87z"/>
   <polygon class="fil7" points="6512.87,7066.21 6605.35,7066.21 6605.35,6427.88 6512.87,6427.88 "/>
   <path class="fil7" d="M7089.33 6790.45l-89.87 -242.42 -91.64 242.42 181.51 0zm38.62 -543.24c-5.86,29.53 -16.16,51.99 -30.94,67.52 -14.8,15.51 -33.22,23.25 -55.4,23.25 -4.19,0 -8.58,-0.32 -13.46,-1.07 -4.75,-0.73 -9.85,-1.88 -15.11,-3.37l-42.57 -11.82c-3.73,-1.13 -7.49,-2.03 -11.09,-2.61 -3.67,-0.58 -7.12,-0.9 -10.36,-0.9 -9.04,0 -16.85,2.61 -23.41,7.68 -6.55,5.12 -11.94,12.8 -16.02,23.02l-38.61 0c5.3,-29.22 15.18,-51.68 29.79,-67.28 14.68,-15.68 32.9,-23.5 54.87,-23.5 4.95,0 9.6,0.32 14.02,0.9 4.33,0.65 8.31,1.46 11.83,2.59l43.34 12.76c4.42,1.12 8.51,2.02 12.35,2.61 3.77,0.64 7.42,0.9 10.95,0.9 9.63,0 17.87,-2.46 24.73,-7.44 6.95,-4.97 12.38,-12.72 16.47,-23.25l38.62 0zm-252.96 633.12l-71.93 185.85 -97.79 0 249.47 -638.33 89.87 0 249.47 638.33 -101.23 0 -70.19 -185.85 -247.66 0z"/>
   <path class="fil7" d="M7468.51 6743.98c0,33.28 5.54,64.81 16.67,94.52 11.1,29.61 27.01,55.25 47.83,76.89 21.87,22.75 47.16,40.48 75.81,53.06 28.65,12.55 57.87,18.86 87.67,18.86 66.04,0 121.29,-23.43 165.71,-70.37 44.51,-46.92 66.7,-105.14 66.7,-174.68 0,-29.53 -5.37,-57.72 -15.98,-84.41 -10.71,-26.76 -26.31,-51.45 -46.7,-73.87 -24.32,-26.04 -50.31,-45.31 -77.87,-57.72 -27.61,-12.39 -58.23,-18.6 -91.86,-18.6 -30.1,0 -58.76,5.71 -85.96,17.05 -27.19,11.43 -51.26,27.94 -72.32,49.53 -21.94,22.54 -39.01,48.77 -51.26,78.54 -12.34,29.8 -18.45,60.26 -18.45,91.2zm-96.5 -0.91c0,-44.73 8.52,-87.08 25.47,-127.1 16.92,-40.08 41.8,-76.17 74.55,-108.32 30.94,-30.45 65.35,-53.4 103.27,-69.08 37.77,-15.67 78.52,-23.42 122.13,-23.42 44.73,0 86.11,7.75 124.3,23.42 38.02,15.68 72.94,38.93 104.48,69.97 32.48,31.81 56.9,67.51 73.22,106.92 16.4,39.51 24.57,82.04 24.57,127.59 0,45.29 -7.01,87.02 -21.07,125.23 -14.02,38.11 -35.03,72.4 -63.11,102.75 -33.04,35.69 -69.94,62.53 -110.76,80.74 -40.71,18.12 -84.99,27.18 -132.57,27.18 -47.9,0 -92.14,-9.23 -132.65,-27.66 -40.46,-18.38 -76.75,-45.73 -108.98,-81.96 -27.17,-30.14 -47.76,-64.43 -61.78,-102.85 -14.06,-38.46 -21.07,-79.59 -21.07,-123.43z"/>
  </g>
 </g>
</svg>
