<?xml version="1.0" encoding="UTF-8"?>
<!DOCTYPE svg PUBLIC "-//W3C//DTD SVG 1.1//EN" "http://www.w3.org/Graphics/SVG/1.1/DTD/svg11.dtd">
<!-- Creator: CorelDRAW 2019 (64 Bit) -->
<svg xmlns="http://www.w3.org/2000/svg" xml:space="preserve" width="110.677mm" height="70.876mm" version="1.1" style="shape-rendering:geometricPrecision; text-rendering:geometricPrecision; image-rendering:optimizeQuality; fill-rule:evenodd; clip-rule:evenodd"
viewBox="0 0 11061.04 7083.31"
 xmlns:xlink="http://www.w3.org/1999/xlink">
 <defs>
  <style type="text/css">
   <![CDATA[
    .fil5 {fill:#344C83}
    .fil1 {fill:#ADD144}
    .fil4 {fill:#D4DE37}
    .fil0 {fill:#E04164}
    .fil3 {fill:#E47B38}
    .fil2 {fill:#F6CE2C}
    .fil6 {fill:#FEFEFE}
    .fil7 {fill:#FEFEFE;fill-rule:nonzero}
   ]]>
  </style>
 </defs>
 <g id="Camada_x0020_1">
  <metadata id="CorelCorpID_0Corel-Layer"/>
  <g id="_2636597662752">
   <path class="fil0" d="M5893.12 4082.44l-1145.22 0c-632.7,0 -1145.42,-512.79 -1145.42,-1145.26 0,-632.42 512.72,-1145.28 1145.42,-1145.28 632.36,0 1145.22,512.86 1145.22,1145.28l0 1145.26z"/>
   <path class="fil1" d="M4540.81 3131.04l1565.65 0c864.49,0 1565.57,-700.81 1565.57,-1565.47 0,-864.55 -701.07,-1565.57 -1565.57,-1565.57 -864.67,0 -1565.65,701.01 -1565.65,1565.57l0 1565.47z"/>
   <path class="fil2" d="M6874.48 3709.76l-1742.79 0c-962.44,0 -1742.63,-780.28 -1742.63,-1742.77 0,-962.54 780.2,-1742.82 1742.63,-1742.82 962.57,0 1742.79,780.29 1742.79,1742.82l0 1742.77z"/>
   <path class="fil3" d="M5893.12 3709.76l-761.51 0c-654.48,0 -1224.7,-361.12 -1522.56,-894.73 60.84,-575.1 547.46,-1023.12 1138.85,-1023.12 632.36,0 1145.22,512.86 1145.22,1145.28l0 772.56 0 0.01z"/>
   <path class="fil4" d="M5287.4 231.11c889.58,78.81 1587.07,825.77 1587.07,1735.88l0 962.96c-226.83,128.01 -488.96,201.13 -768.07,201.13l-1565.61 0 0 -1565.5c0,-564.41 298.77,-1058.88 746.61,-1334.47l0.01 0.01z"/>
   <path class="fil3" d="M4492.99 1800.24c70.56,-12.82 143.08,-19.52 217.34,-19.52 664.15,0 1202.56,538.28 1202.56,1202.42l0 203.62 -1419.9 0 0 -1386.52z"/>
   <path class="fil5" d="M4143.42 3371.51l1354.51 0c748.01,0 1354.41,-606.46 1354.41,-1354.5 0,-748.03 -606.4,-1354.47 -1354.41,-1354.47 -748.11,0 -1354.51,606.44 -1354.51,1354.47l0 1354.5z"/>
   <path class="fil6" d="M5270.46 1417.13l0 1235.86 204.36 0c339.16,0 618.01,-278.84 618.01,-618.08 0,-338.95 -278.84,-617.79 -618.01,-617.79l-204.36 0zm-276.06 -249.5l506.99 0c477.08,0 867.45,390.39 867.45,867.29 0,477.19 -390.38,867.59 -867.45,867.59l-506.99 0 0 -1734.88 0 -0.01z"/>
   <path class="fil7" d="M10421.75 5005.54c227.84,0 413.37,191.06 413.37,426.21 0,233.37 -185.53,424.32 -411.58,424.32 -233.29,0 -416.97,-189.16 -416.97,-429.78 0,-229.69 187.38,-420.75 415.19,-420.75l-0.01 0zm0 -211.28c-350.82,0 -641.27,286.45 -641.27,630.15 0,360.03 282.92,642.96 643.06,642.96 350.92,0 637.5,-284.73 637.5,-635.61 0,-352.69 -286.59,-637.49 -639.29,-637.49zm-963.93 1249.27l225.92 0 0 -1225.44 -225.92 0 0 1225.44zm-690.15 -639.3l0 -374.83 146.92 0c132.41,0 216.85,71.56 216.85,185.66 0,117.3 -82.73,189.18 -218.63,189.18l-145.14 0zm-226.1 639.3l226.1 0 0 -468.44 327.01 468.44 275.52 0 -332.53 -451.86c90.1,-22.22 134.05,-42.47 185.64,-86.48 82.63,-69.86 134.15,-189.27 134.15,-308.59 0,-106.61 -44.12,-205.84 -123.19,-279.27 -77.08,-69.84 -168.99,-99.24 -317.91,-99.24l-374.8 0 0 1225.44zm-721.21 -1309.97l376.51 -200.31 -84.55 -167.1 -372.84 220.55 80.88 146.86zm-46.01 782.66l130.42 -376.64 130.49 376.64 -260.91 0zm-468.42 527.31l249.76 0 136 -316.09 433.49 0 132.3 316.09 249.97 0 -514.43 -1225.44 -176.46 0 -510.62 1225.44zm-264.08 0l226.04 0 0 -1225.44 -226.04 0 0 1225.44zm-851.73 -211.22l0 -802.91 44.01 0c128.7,0 214.89,16.51 284.88,53.34 122.92,66.08 200.24,202 200.24,354.58 0,141.46 -68.08,266.26 -183.83,334.23 -73.42,44.11 -154.19,60.77 -297.73,60.77l-47.57 0zm-226.03 211.22l282.96 0c169.06,0 282.82,-20.17 382.07,-68.13 190.97,-91.73 316.02,-304.74 316.02,-541.85 0,-213.18 -102.91,-417.06 -259.08,-516.22 -106.41,-66.16 -255.25,-99.24 -444.47,-99.24l-277.49 0 0 1225.44zm-1193.6 -1037.99c227.87,0 413.47,191.06 413.47,426.21 0,233.37 -185.6,424.32 -411.59,424.32 -233.35,0 -417.07,-189.16 -417.07,-429.78 0,-229.69 187.46,-420.75 415.2,-420.75l-0.01 0zm0 -211.28c-350.79,0 -641.18,286.45 -641.18,630.15 0,360.03 282.89,642.96 643.06,642.96 351,0 637.45,-284.73 637.45,-635.61 0,-352.69 -286.46,-637.49 -639.33,-637.49zm-1213.65 569.43l0 -334.3 82.73 0c91.73,0 104.63,1.8 141.41,14.7 65.98,22.06 106.43,79.07 106.43,146.85 0,68.12 -44.05,132.34 -104.65,154.4 -34.87,12.83 -84.55,18.35 -154.3,18.35l-71.63 0zm-226.09 679.84l226.09 0 0 -468.44 78.82 0c185.67,0 237.13,-9.22 306.87,-53.44 104.79,-66.08 170.94,-194.7 170.94,-332.34 0,-130.54 -55.05,-237.03 -156.18,-306.95 -77.14,-51.45 -139.67,-64.28 -317.73,-64.28l-308.81 0 0 1225.44 -0.01 0.01zm-1013.55 -1225.44l0 778.9c0,123.18 20.24,211.39 66.24,279.35 77.15,117.62 222.25,191.02 374.73,191.02 136,0 260.96,-56.93 345.4,-158.03 62.51,-73.52 90.05,-170.81 90.05,-312.34l0 -778.9 -225.94 0 0 778.9c0,88.23 -9.3,130.45 -38.64,172.85 -34.87,53.26 -101.04,84.37 -174.55,84.37 -73.52,0 -135.92,-31.11 -172.66,-86.28 -31.21,-44.16 -38.57,-80.84 -38.57,-170.94l0 -778.9 -226.07 0 0.01 0zm-690.14 586.13l0 -374.83 147.12 0c132.16,0 216.69,71.56 216.69,185.66 0,117.3 -82.66,189.18 -218.57,189.18l-145.24 0zm-225.84 639.3l225.83 0 0 -468.44 327.13 468.44 275.43 0 -332.53 -451.86c90.02,-22.22 134.2,-42.47 185.58,-86.48 82.66,-69.86 134.12,-189.27 134.12,-308.59 0,-106.61 -44.1,-205.84 -123.08,-279.27 -77.12,-69.84 -168.94,-99.24 -317.83,-99.24l-374.66 0 0 1225.44zm-892.33 -411.57l512.53 0c-67.94,139.58 -205.76,224.11 -361.84,224.11 -108.47,0 -209.51,-34.88 -284.74,-99.16 -90.09,-77.19 -148.89,-202.16 -148.89,-321.57 0,-106.43 45.99,-224.12 119.38,-301.24 75.43,-80.77 185.68,-126.75 303.15,-126.75 132.25,0 255.33,64.19 326.97,170.86l270.03 0c-77.19,-218.66 -332.37,-383.96 -593.16,-383.96 -356.44,0 -652.3,288.48 -652.3,637.49 0,352.69 293.9,635.61 657.69,635.61 354.58,0 650.24,-282.93 650.24,-620.91l0 -25.81 -799.05 0 0 211.32z"/>
   <path class="fil7" d="M3122.1 6985.02l112.27 0c71.1,0 127.35,-20.7 168.69,-62.07 41.42,-41.43 62.07,-97.62 62.07,-168.68 0,-73.77 -21.87,-131.35 -65.75,-172.85 -43.93,-41.57 -104.63,-62.33 -182.07,-62.33l-95.21 0 0 465.93zm89.5 85.49l-179.42 0 0 -638.72 205.74 0c95.89,0 173.4,29.65 232.3,89.03 58.87,59.38 88.37,136.91 88.37,232.54 0,54.4 -11.03,103.99 -33.17,148.75 -22.06,44.76 -53.82,82.01 -95.3,111.82 -28.1,20.23 -58.07,34.72 -90.03,43.44 -31.82,8.81 -74.74,13.14 -128.48,13.14z"/>
   <path class="fil7" d="M4000.7 6794.6l-89.92 -242.57 -91.73 242.57 181.65 0zm-214.47 89.94l-71.99 185.97 -97.84 0 249.63 -638.72 89.93 0 249.62 638.72 -101.31 0 -70.23 -185.97 -247.81 0z"/>
   <path class="fil7" d="M4734.11 6763.44l47.37 0c64.06,0 111.77,-10.35 143.01,-31.1 31.28,-20.84 46.99,-52.36 46.99,-94.85 0,-41.16 -13.48,-71.46 -40.36,-90.72 -26.95,-19.36 -69.5,-29 -127.65,-29l-69.37 0 0 245.68zm0 307.12l-92.53 0 0 -638.81 184.28 0c76.61,0 135.08,17.71 175.44,53.1 40.36,35.36 60.49,86.56 60.49,153.55 0,52.03 -16.8,95.55 -50.62,130.53 -33.72,34.95 -77.24,53.75 -130.51,56.34l181.13 245.3 -115.79 0 -211.89 -296.58 0 296.58z"/>
   <polygon class="fil7" points="5552.7,7070.56 5220.96,7070.56 5220.96,6431.81 5552.7,6431.81 5552.7,6516.91 5313.63,6516.91 5313.63,6707.71 5552.7,6707.71 5552.7,6791.12 5313.63,6791.12 5313.63,6982.35 5552.7,6982.35 "/>
   <path class="fil7" d="M5964.78 6748.11l396.41 0c-4.44,99.71 -36.86,180.49 -97.29,242.34 -60.34,61.9 -136.98,92.85 -229.61,92.85 -48.11,0 -92.44,-9.23 -133.04,-27.67 -40.6,-18.39 -77.04,-45.76 -109.29,-82.01 -27.25,-30.16 -48.03,-64.47 -62.07,-102.92 -14.06,-38.49 -21.08,-79.64 -21.08,-123.51 0,-44.75 8.51,-87.14 25.48,-127.17 17,-40.11 41.88,-76.21 74.83,-108.38 31.11,-30.96 65.8,-54.16 104.31,-69.61 38.36,-15.27 80.99,-22.95 127.97,-22.95 64.75,0 121.62,15.11 170.45,45.4 48.87,30.25 85.78,73.3 110.7,129.16l-114.11 0c-21.09,-27.22 -46.4,-47.63 -75.72,-61.43 -29.38,-13.73 -62.13,-20.58 -98.26,-20.58 -30.3,0 -59.06,5.72 -86.44,17.06 -27.26,11.43 -51.52,27.95 -72.67,49.56 -22.07,22.56 -39.21,48.8 -51.57,78.59 -12.31,29.82 -18.5,60.29 -18.5,91.25 0,33.3 5.62,64.85 16.72,94.58 11.17,29.63 27.19,55.29 48.03,76.93 21.96,22.77 47.38,40.51 76.21,53.09 28.75,12.56 58.04,18.87 88.04,18.87 48.76,0 91.83,-12.9 129.08,-38.88 37.32,-25.8 67.93,-64.03 92.05,-114.67l-290.64 0 0 -89.93z"/>
   <polygon class="fil7" points="6516.84,7070.53 6609.37,7070.53 6609.37,6431.81 6516.84,6431.81 "/>
   <path class="fil7" d="M7093.65 6794.6l-89.93 -242.57 -91.69 242.57 181.62 0zm38.65 -543.57c-5.87,29.55 -16.17,52.02 -30.96,67.56 -14.81,15.52 -33.24,23.27 -55.44,23.27 -4.2,0 -8.58,-0.32 -13.47,-1.07 -4.76,-0.73 -9.85,-1.88 -15.12,-3.37l-42.59 -11.82c-3.73,-1.13 -7.5,-2.03 -11.09,-2.61 -3.67,-0.58 -7.13,-0.9 -10.36,-0.9 -9.04,0 -16.86,2.61 -23.43,7.69 -6.56,5.13 -11.94,12.81 -16.03,23.04l-38.64 0c5.31,-29.24 15.19,-51.71 29.81,-67.32 14.69,-15.69 32.92,-23.52 54.91,-23.52 4.96,0 9.6,0.32 14.03,0.9 4.34,0.65 8.31,1.46 11.83,2.59l43.36 12.77c4.43,1.12 8.51,2.02 12.36,2.61 3.77,0.64 7.43,0.9 10.95,0.9 9.63,0 17.88,-2.46 24.74,-7.45 6.96,-4.98 12.39,-12.73 16.48,-23.27l38.65 0zm-253.12 633.51l-71.98 185.97 -97.85 0 249.62 -638.72 89.93 0 249.62 638.72 -101.29 0 -70.24 -185.97 -247.81 0z"/>
   <path class="fil7" d="M7473.06 6748.11c0,33.3 5.55,64.85 16.68,94.58 11.1,29.63 27.02,55.29 47.86,76.93 21.89,22.77 47.19,40.51 75.85,53.09 28.66,12.56 57.9,18.87 87.73,18.87 66.08,0 121.37,-23.45 165.81,-70.42 44.53,-46.95 66.74,-105.21 66.74,-174.78 0,-29.55 -5.38,-57.75 -15.99,-84.46 -10.71,-26.77 -26.32,-51.48 -46.73,-73.92 -24.34,-26.05 -50.34,-45.34 -77.91,-57.75 -27.62,-12.4 -58.26,-18.61 -91.91,-18.61 -30.12,0 -58.79,5.72 -86.01,17.06 -27.2,11.43 -51.29,27.95 -72.37,49.56 -21.96,22.56 -39.04,48.8 -51.29,78.59 -12.35,29.82 -18.46,60.29 -18.46,91.25zm-96.55 -0.91c0,-44.75 8.52,-87.14 25.48,-127.17 16.93,-40.11 41.82,-76.21 74.59,-108.38 30.96,-30.47 65.39,-53.44 103.34,-69.12 37.8,-15.68 78.57,-23.44 122.21,-23.44 44.75,0 86.16,7.76 124.37,23.44 38.05,15.69 72.99,38.96 104.55,70.02 32.5,31.83 56.94,67.55 73.27,106.99 16.41,39.54 24.59,82.09 24.59,127.67 0,45.32 -7.02,87.08 -21.09,125.3 -14.03,38.14 -35.05,72.45 -63.15,102.82 -33.06,35.71 -69.99,62.57 -110.82,80.79 -40.74,18.13 -85.04,27.19 -132.65,27.19 -47.93,0 -92.19,-9.23 -132.73,-27.67 -40.49,-18.39 -76.79,-45.76 -109.04,-82.01 -27.18,-30.16 -47.79,-64.47 -61.82,-102.92 -14.07,-38.49 -21.09,-79.64 -21.09,-123.51z"/>
  </g>
 </g>
</svg>
